<svg width="172" height="185" viewBox="0 0 172 185" fill="none" xmlns="http://www.w3.org/2000/svg">
<path d="M153.306 79.2101L158.663 66.4127L150.96 37.9273L132.429 5.50837L122.874 2.33793L113.691 1.32043L119.737 31.5656L89.6402 5.80437H77.3048L71.2636 9.60381L99.4302 53.3147L70.7497 61.568L27.4282 86.3164L17.9231 114.862L32.7159 118.62L6.95625 124.052V130.582L2.58176 132.233L16.9965 145.292L40.1177 151.409L66.4312 139.98L55.2034 170.452L96.0329 183.749L169.369 147.353V116.136L153.306 79.2101Z" fill="#B3ADD8"/>
<path d="M71.3675 124.9L45.5093 120.689L35.2773 118.079L6.95625 124.052V126.986L32.25 132.992L58.875 127.747L58.8537 129.058L71.3675 124.9Z" fill="#8B75A1"/>
<path d="M140.081 55.5231L139.389 50.3431L121.888 2.22693L113.691 1.32043L119.737 31.5656L121.761 34.9211L122.775 39.9993V55.5231H118.781L112.764 42.8044L77.7255 6.96062L77.3048 5.80437L71.2636 9.60381L99.4302 53.3147L70.7497 61.568L27.4282 86.3164L17.9231 114.862L32.7159 118.62L37.8679 118.724L45.5092 120.689L55.8397 91.2744L76.8203 79.2031L90.825 71.7106L145.406 55.5231H140.081Z" fill="#DCD5F2"/>
<path d="M101.475 143.398L95.6708 179.936L96.0329 183.749L55.2034 170.452L66.4312 139.98L68.6623 137.719L78.4683 136.192L101.475 143.398Z" fill="#978FBF"/>
<path d="M32.25 137.892V136.678L8.21295 130.106L2.58176 132.233L16.9965 145.292L40.1177 151.409L39.9979 150.167L32.25 137.892Z" fill="#DCD5F2"/>
<path d="M32.25 130.679L6.95625 124.674V130.975L32.25 137.892L34.9125 137.009V130.154L32.25 130.679Z" fill="#F2FAFF"/>
<path d="M60.875 127.435L34.25 132.679V139.892L60.875 131.049V127.435Z" fill="#E1EBF2"/>
<path d="M122.775 148.763V170.475L117.45 173.118V151.399L122.775 148.763Z" fill="#978FBF"/>
<path d="M138.75 140.854V162.548L133.425 165.191V143.491L138.75 140.854Z" fill="#978FBF"/>
<path d="M154.725 154.621V132.899L149.4 135.582V157.262L154.725 154.621Z" fill="#978FBF"/>
<path d="M154.725 79.2031L160.05 66.4844L152.222 37.5319L133.425 4.64812L122.988 1.17937L112.072 -0.0231323L117.716 28.2125L90.186 4.64812H76.8735L69.525 9.27312L97.4812 52.6556L70.164 60.5181L49.6095 72.2656L40.4505 77.4919L26.286 85.5856L16.275 115.648L27.564 118.516L5.625 123.141V129.824L0.299999 131.836L16.275 146.312L40.2375 152.648L64.2 142.242L53.55 171.148L96.15 185.023L170.7 148.023V115.926L154.725 79.2031ZM168.037 146.682L95.9104 182.479L56.8515 169.761L66.7294 142.936L68.673 137.709L63.0019 140.184L39.9979 150.174L17.7127 144.277L4.8795 132.622L6.69 131.951L8.2875 131.35V124.967L28.203 120.759L37.8679 118.724L28.3095 116.296L19.5765 114.076L28.5758 87.0425L43.7254 78.3937L52.9642 73.1212L71.3355 62.6225L98.3066 54.8525L101.368 53.9737L99.7976 51.5225L73.0129 9.94374L77.7255 6.96062H89.0944L115.852 29.8544L121.763 34.9187L120.352 27.8194L115.32 2.65937L122.322 3.44562L131.508 6.47499L149.693 38.3181L157.281 66.3456L152.222 78.4169L151.876 79.2262L152.222 80.0125L168.037 116.342V146.682Z" fill="#8B75A1"/>
<path d="M163.218 98.6975L160.902 99.9694L88.7483 139.421L101.475 143.398L164.763 108.803L167.052 107.531L163.218 98.6975Z" fill="#495866"/>
<path d="M90.1328 139.837L78.471 136.183L67.182 84.7531L43.7254 78.3938L40.4505 77.4919L49.6095 72.2656L52.9643 73.1213L76.8203 79.2031L90.1328 139.837Z" fill="#495866"/>
<path d="M75.071 138.759C75.071 138.759 74.3282 138.764 70.7364 138.787C67.1447 138.81 64.2053 135.723 64.1734 131.891C64.1414 128.059 67.0249 124.935 70.6166 124.912C74.2083 124.889 74.9512 124.884 74.9512 124.884L75.071 138.759Z" fill="#B6C9D6"/>
<path d="M74.8794 138.77C77.8203 138.751 80.178 135.63 80.1453 131.798C80.1127 127.967 77.7021 124.876 74.7612 124.895C71.8203 124.914 69.4627 128.035 69.4953 131.867C69.528 135.698 71.9385 138.789 74.8794 138.77Z" fill="#8096B0"/>
<path d="M133.425 92.5C133.425 100.164 126.274 106.375 117.45 106.375C108.626 106.375 101.475 100.164 101.475 92.5C101.475 83.25 108.626 69.375 117.45 69.375C126.274 69.375 133.425 83.25 133.425 92.5Z" fill="white"/>
<path d="M40.9723 98.4593L36.297 111.717L41.3557 113.012L47.61 95.3467L40.9723 98.4593Z" fill="#8B75A1"/>
<path d="M36.486 97.3077L32.8198 91.5403L26.8717 109.312L32.037 110.653L36.486 97.3077Z" fill="#8B75A1"/>
<path d="M118.781 92.5C120.987 92.5 122.775 90.947 122.775 89.0312C122.775 87.1155 120.987 85.5625 118.781 85.5625C116.576 85.5625 114.788 87.1155 114.788 89.0312C114.788 90.947 116.576 92.5 118.781 92.5Z" fill="#495866"/>
<g style="mix-blend-mode:hard-light" opacity="0.85">
<g style="mix-blend-mode:hard-light" filter="url(#filter0_d_0_1)">
<path d="M136.55 98.6648C138.941 94.2356 139.995 89.3787 138.953 84.7815C137.848 79.8825 134.132 75.5288 130.426 72.7623C126.263 69.6585 121.569 67.2107 117.263 64.274C114.65 62.4974 111.824 61.0223 109.117 59.3644C105.681 57.2528 102.339 55.0224 98.9939 52.7701C93.5429 49.1101 88.0889 45.5083 82.5922 41.9187C81.2494 41.0466 79.9034 40.1525 78.5605 39.2804C75.127 37.0307 71.5871 35.2119 67.3378 34.753C61.8377 34.1619 56.8553 35.9276 52.519 40.4134C50.0049 43.0018 48.0098 45.9672 46.4297 49.2021C44.5634 53.0114 43.1944 56.9636 42.8596 61.0872C42.4342 66.2323 44.1495 70.8072 47.7789 73.7442C50.2697 75.7619 53.2141 76.8138 56.396 77.3397C61.1794 78.1255 66.0532 77.6497 70.972 76.4629C72.9268 75.9919 74.8937 75.5289 76.781 74.6539C79.586 73.3547 82.3145 71.8258 84.9544 70.0593C88.2222 67.8604 91.3373 65.4422 93.4203 61.8337C93.5726 61.5725 93.7495 61.5674 93.9631 61.586C97.4222 61.7919 100.016 63.3565 101.636 66.4487C101.831 66.8157 101.78 67.0823 101.508 67.4463C100.723 68.4963 100.12 69.6652 99.6327 70.8693C98.5583 73.4324 97.9294 76.0847 97.5383 78.7715C96.7503 84.2613 96.5414 89.367 97.5802 94.5827C98.5425 99.4887 100.316 104.161 103.089 108.043C105.108 110.894 107.584 113.202 110.87 114.396C115.468 116.082 120.039 115.109 124.487 112.136C129.559 108.708 133.569 104.191 136.55 98.6648ZM114.783 64.3241C114.619 64.4172 114.124 64.3763 113.868 64.2899C110.759 63.3312 107.778 62.5757 104.483 64.5767C103.849 64.9651 102.703 65.9814 102.68 64.6264C102.649 63.2854 101.193 62.5602 100.274 61.9436C99.3067 61.2953 98.3301 60.6611 97.32 60.1051C96.792 59.8223 96.3009 59.7234 95.6818 59.9015C94.6145 60.2086 94.3397 59.9102 94.54 58.7999C95.053 56.0323 94.4278 52.7455 92.6173 50.9096C92.1655 50.4562 91.5217 50.2181 91.1947 49.6257C91.1184 49.4761 91.1121 49.2719 91.2157 49.1392C91.4502 48.8314 91.7922 49.2135 91.954 49.3386C92.3508 49.6363 92.7872 49.8997 93.1931 50.1833C95.5676 51.7653 97.9726 53.3271 100.365 54.881C103.308 56.7917 106.25 58.7023 109.192 60.613C110.95 61.7546 112.726 62.8681 114.511 63.9675C114.859 64.1534 114.887 64.2713 114.783 64.3241Z" fill="black"/>
<path d="M130.725 72.3615L130.725 72.3617C134.485 75.1687 138.3 79.6143 139.441 84.6714C140.516 89.4166 139.421 94.3976 136.99 98.9023M130.725 72.3615L138.953 84.7815C139.995 89.3787 138.941 94.2356 136.55 98.6648C133.569 104.191 129.559 108.708 124.487 112.136C120.039 115.109 115.468 116.082 110.87 114.396C107.584 113.202 105.108 110.894 103.089 108.043M130.725 72.3615C128.624 70.7948 126.392 69.3967 124.159 68.0291C123.825 67.8242 123.49 67.6201 123.156 67.4162C121.255 66.2556 119.365 65.1023 117.545 63.8609L117.544 63.8606C115.892 62.7367 114.134 61.7207 112.393 60.7145C111.375 60.1256 110.362 59.54 109.379 58.9382C105.952 56.8326 102.618 54.6074 99.2732 52.3553L99.2726 52.355C93.8196 48.6936 88.3637 45.0905 82.8656 41.5L82.8646 41.4993C82.1944 41.0641 81.5233 40.6233 80.8509 40.1816L80.8503 40.1813C80.1788 39.7402 79.506 39.2982 78.8337 38.8616C75.3745 36.5951 71.756 34.7273 67.3915 34.2559L67.3912 34.2558C61.7298 33.6475 56.5975 35.4751 52.1599 40.0654C49.6047 42.6963 47.5806 45.7065 45.9805 48.9824C44.0979 52.8251 42.7029 56.8396 42.3613 61.0464C41.9247 66.3279 43.6859 71.0751 47.4644 74.1329C50.0423 76.2211 53.0765 77.2978 56.3144 77.833L56.3149 77.8331C61.1843 78.633 66.1286 78.1458 71.0892 76.949C71.1429 76.9361 71.1967 76.9231 71.2505 76.9102C73.1456 76.4539 75.1047 75.9822 76.9913 75.1076C79.8199 73.7974 82.5711 72.2558 85.2325 70.4749L85.2335 70.4741C88.5136 68.2669 91.7098 65.7964 93.8528 62.0848M130.725 72.3615L93.8528 62.0848M136.99 98.9023L136.555 98.6676L136.99 98.9022C136.99 98.9022 136.99 98.9023 136.99 98.9023ZM136.99 98.9023C133.973 104.495 129.91 109.075 124.767 112.55L124.765 112.552C120.222 115.589 115.484 116.62 110.698 114.866M110.698 114.866C110.699 114.866 110.699 114.866 110.699 114.866L110.869 114.397L110.698 114.865C110.698 114.865 110.698 114.865 110.698 114.866ZM110.698 114.866C107.287 113.626 104.737 111.236 102.681 108.332M102.681 108.332C102.682 108.333 102.682 108.333 102.682 108.333L103.089 108.043M102.681 108.332C102.681 108.332 102.681 108.332 102.681 108.332L103.089 108.043M102.681 108.332C99.858 104.38 98.0622 99.6373 97.0898 94.6799M103.089 108.043C100.316 104.161 98.5425 99.4887 97.5802 94.5827M97.5802 94.5827L97.0898 94.6804C97.0898 94.6802 97.0898 94.6801 97.0898 94.6799M97.5802 94.5827L97.0896 94.6789C97.0896 94.6793 97.0897 94.6796 97.0898 94.6799M97.5802 94.5827L93.4203 61.8337L93.8385 62.0751C93.8407 62.0743 93.8429 62.0734 93.8451 62.0724C93.849 62.0706 93.853 62.0685 93.8569 62.0662C93.8608 62.0639 93.864 62.0617 93.8666 62.0598C93.8691 62.0579 93.8711 62.0563 93.8724 62.0551C93.8776 62.0505 93.8708 62.0549 93.8557 62.0798M97.0898 94.6799C96.0359 89.3879 96.251 84.2204 97.0434 78.7005L97.0435 78.6995C97.4386 75.9851 98.076 73.2906 99.1703 70.6791C99.6681 69.4484 100.29 68.2399 101.108 67.1471M101.108 67.1471C101.108 67.147 101.108 67.1468 101.108 67.1467L101.508 67.4463L101.107 67.1477C101.108 67.1475 101.108 67.1473 101.108 67.1471ZM101.108 67.1471C101.222 66.9935 101.247 66.9161 101.252 66.8786C101.255 66.8549 101.259 66.8041 101.194 66.6838L101.193 66.6806C99.6598 63.7536 97.2287 62.2813 93.9333 62.0851L93.9196 62.0843L93.9196 62.0841C93.8964 62.0821 93.8781 62.0808 93.8625 62.0801C93.8601 62.08 93.8579 62.0799 93.8557 62.0798M93.8557 62.0798C93.8523 62.0797 93.8491 62.0796 93.8463 62.0796L93.8534 62.0837C93.8532 62.0841 93.853 62.0844 93.8528 62.0848M93.8557 62.0798C93.8547 62.0814 93.8538 62.083 93.8528 62.0848M108.919 61.0323C110.162 61.8393 111.414 62.632 112.67 63.4153C109.983 62.6752 107.221 62.3292 104.223 64.1493L104.222 64.1503C104.121 64.2119 103.994 64.298 103.872 64.3804C103.798 64.4306 103.726 64.4793 103.663 64.5203C103.474 64.6439 103.316 64.735 103.192 64.7816C103.186 64.7423 103.181 64.6891 103.18 64.618L103.18 64.6145C103.16 63.7448 102.672 63.1076 102.141 62.6385C101.754 62.2974 101.287 61.9999 100.903 61.7554C100.775 61.6737 100.656 61.598 100.553 61.5285L100.553 61.5282C99.5825 60.8782 98.5911 60.234 97.5611 59.6671L97.5611 59.667L97.5561 59.6644C96.9367 59.3325 96.3111 59.2001 95.5435 59.421C95.2952 59.4925 95.1323 59.5164 95.0312 59.5151C95.015 59.5149 95.002 59.5141 94.9918 59.5131C94.9884 59.4974 94.9847 59.4749 94.9823 59.444C94.973 59.3277 94.985 59.1503 95.0318 58.8902C95.5452 56.1191 94.9764 52.786 93.1715 50.7695C95.4653 52.295 97.7855 53.8018 100.092 55.2995L100.093 55.3004L100.11 55.3116L100.128 55.3228L100.145 55.3339L100.162 55.3451L100.179 55.3563L100.197 55.3675L100.214 55.3787L100.231 55.3899L100.248 55.4011L100.265 55.4123L100.283 55.4235L100.3 55.4347L100.317 55.4459L100.334 55.4571L100.352 55.4683L100.369 55.4795L100.386 55.4907L100.403 55.5019L100.421 55.5131L100.438 55.5243L100.455 55.5355L100.472 55.5467L100.49 55.5578L100.507 55.569L100.524 55.5802L100.541 55.5914L100.559 55.6026L100.576 55.6138L100.593 55.625L100.61 55.6362L100.627 55.6474L100.645 55.6586L100.662 55.6698L100.679 55.681L100.696 55.6922L100.714 55.7034L100.731 55.7146L100.748 55.7258L100.765 55.737L100.783 55.7482L100.8 55.7594L100.817 55.7706L100.834 55.7818L100.852 55.7929L100.869 55.8041L100.886 55.8153L100.903 55.8265L100.921 55.8377L100.938 55.8489L100.955 55.8601L100.972 55.8713L100.99 55.8825L101.007 55.8937L101.024 55.9049L101.041 55.9161L101.058 55.9273L101.076 55.9385L101.093 55.9497L101.11 55.9609L101.127 55.9721L101.145 55.9833L101.162 55.9945L101.179 56.0057L101.196 56.0169L101.214 56.028L101.231 56.0392L101.248 56.0504L101.265 56.0616L101.283 56.0728L101.3 56.084L101.317 56.0952L101.334 56.1064L101.352 56.1176L101.369 56.1288L101.386 56.14L101.403 56.1512L101.42 56.1624L101.438 56.1736L101.455 56.1848L101.472 56.196L101.489 56.2072L101.507 56.2184L101.524 56.2296L101.541 56.2408L101.558 56.252L101.576 56.2631L101.593 56.2743L101.61 56.2855L101.627 56.2967L101.645 56.3079L101.662 56.3191L101.679 56.3303L101.696 56.3415L101.714 56.3527L101.731 56.3639L101.748 56.3751L101.765 56.3863L101.783 56.3975L101.8 56.4087L101.817 56.4199L101.834 56.4311L101.851 56.4423L101.869 56.4535L101.886 56.4647L101.903 56.4759L101.92 56.4871L101.938 56.4982L101.955 56.5094L101.972 56.5206L101.989 56.5318L102.007 56.543L102.024 56.5542L102.041 56.5654L102.058 56.5766L102.076 56.5878L102.093 56.599L102.11 56.6102L102.127 56.6214L102.145 56.6326L102.162 56.6438L102.179 56.655L102.196 56.6662L102.213 56.6774L102.231 56.6886L102.248 56.6998L102.265 56.711L102.282 56.7221L102.3 56.7333L102.317 56.7445L102.334 56.7557L102.351 56.7669L102.369 56.7781L102.386 56.7893L102.403 56.8005L102.42 56.8117L102.438 56.8229L102.455 56.8341L102.472 56.8453L102.489 56.8565L102.507 56.8677L102.524 56.8789L102.541 56.8901L102.558 56.9013L102.576 56.9125L102.593 56.9237L102.61 56.9349L102.627 56.9461L102.644 56.9572L102.662 56.9684L102.679 56.9796L102.696 56.9908L102.713 57.002L102.731 57.0132L102.748 57.0244L102.765 57.0356L102.782 57.0468L102.8 57.058L102.817 57.0692L102.834 57.0804L102.851 57.0916L102.869 57.1028L102.886 57.114L102.903 57.1252L102.92 57.1364L102.938 57.1476L102.955 57.1588L102.972 57.17L102.989 57.1812L103.006 57.1923L103.024 57.2035L103.041 57.2147L103.058 57.2259L103.075 57.2371L103.093 57.2483L103.11 57.2595L103.127 57.2707L103.144 57.2819L103.162 57.2931L103.179 57.3043L103.196 57.3155L103.213 57.3267L103.231 57.3379L103.248 57.3491L103.265 57.3603L103.282 57.3715L103.3 57.3827L103.317 57.3939L103.334 57.4051L103.351 57.4163L103.368 57.4274L103.386 57.4386L103.403 57.4498L103.42 57.461L103.437 57.4722L103.455 57.4834L103.472 57.4946L103.489 57.5058L103.506 57.517L103.524 57.5282L103.541 57.5394L103.558 57.5506L103.575 57.5618L103.593 57.573L103.61 57.5842L103.627 57.5954L103.644 57.6066L103.662 57.6178L103.679 57.629L103.696 57.6402L103.713 57.6514L103.731 57.6625L103.748 57.6737L103.765 57.6849L103.782 57.6961L103.799 57.7073L103.817 57.7185L103.834 57.7297L103.851 57.7409L103.868 57.7521L103.886 57.7633L103.903 57.7745L103.92 57.7857L103.937 57.7969L103.955 57.8081L103.972 57.8193L103.989 57.8305L104.006 57.8417L104.024 57.8529L104.041 57.8641L104.058 57.8753L104.075 57.8865L104.093 57.8976L104.11 57.9088L104.127 57.92L104.144 57.9312L104.161 57.9424L104.179 57.9536L104.196 57.9648L104.213 57.976L104.23 57.9872L104.248 57.9984L104.265 58.0096L104.282 58.0208L104.299 58.032L104.317 58.0432L104.334 58.0544L104.351 58.0656L104.368 58.0768L104.386 58.088L104.403 58.0992L104.42 58.1104L104.437 58.1215L104.455 58.1327L104.472 58.1439L104.489 58.1551L104.506 58.1663L104.524 58.1775L104.541 58.1887L104.558 58.1999L104.575 58.2111L104.592 58.2223L104.61 58.2335L104.627 58.2447L104.644 58.2559L104.661 58.2671L104.679 58.2783L104.696 58.2895L104.713 58.3007L104.73 58.3119L104.748 58.3231L104.765 58.3343L104.782 58.3455L104.799 58.3566L104.817 58.3678L104.834 58.379L104.851 58.3902L104.868 58.4014L104.886 58.4126L104.903 58.4238L104.92 58.435L104.937 58.4462L104.954 58.4574L104.972 58.4686L104.989 58.4798L105.006 58.491L105.023 58.5022L105.041 58.5134L105.058 58.5246L105.075 58.5358L105.092 58.547L105.11 58.5582L105.127 58.5694L105.144 58.5806L105.161 58.5917L105.179 58.6029L105.196 58.6141L105.213 58.6253L105.23 58.6365L105.248 58.6477L105.265 58.6589L105.282 58.6701L105.299 58.6813L105.317 58.6925L105.334 58.7037L105.351 58.7149L105.368 58.7261L105.385 58.7373L105.403 58.7485L105.42 58.7597L105.437 58.7709L105.454 58.7821L105.472 58.7933L105.489 58.8045L105.506 58.8157L105.523 58.8268L105.541 58.838L105.558 58.8492L105.575 58.8604L105.592 58.8716L105.61 58.8828L105.627 58.894L105.644 58.9052L105.661 58.9164L105.679 58.9276L105.696 58.9388L105.713 58.95L105.73 58.9612L105.747 58.9724L105.765 58.9836L105.782 58.9948L105.799 59.006L105.816 59.0172L105.834 59.0284L105.851 59.0396L105.868 59.0508L105.885 59.0619L105.903 59.0731L105.92 59.0843L105.937 59.0955L105.954 59.1067L105.972 59.1179L105.989 59.1291L106.006 59.1403L106.023 59.1515L106.041 59.1627L106.058 59.1739L106.075 59.1851L106.092 59.1963L106.11 59.2075L106.127 59.2187L106.144 59.2299L106.161 59.2411L106.178 59.2523L106.196 59.2635L106.213 59.2747L106.23 59.2858L106.247 59.297L106.265 59.3082L106.282 59.3194L106.299 59.3306L106.316 59.3418L106.334 59.353L106.351 59.3642L106.368 59.3754L106.385 59.3866L106.403 59.3978L106.42 59.409L106.437 59.4202L106.454 59.4314L106.472 59.4426L106.489 59.4538L106.506 59.465L106.523 59.4762L106.54 59.4874L106.558 59.4986L106.575 59.5098L106.592 59.5209L106.609 59.5321L106.627 59.5433L106.644 59.5545L106.661 59.5657L106.678 59.5769L106.696 59.5881L106.713 59.5993L106.73 59.6105L106.747 59.6217L106.765 59.6329L106.782 59.6441L106.799 59.6553L106.816 59.6665L106.834 59.6777L106.851 59.6889L106.868 59.7001L106.885 59.7113L106.903 59.7225L106.92 59.7337L106.937 59.7449L106.954 59.756L106.971 59.7672L106.989 59.7784L107.006 59.7896L107.023 59.8008L107.04 59.812L107.058 59.8232L107.075 59.8344L107.092 59.8456L107.109 59.8568L107.127 59.868L107.144 59.8792L107.161 59.8904L107.178 59.9016L107.196 59.9128L107.213 59.924L107.23 59.9352L107.247 59.9464L107.265 59.9576L107.282 59.9688L107.299 59.98L107.316 59.9911L107.333 60.0023L107.351 60.0135L107.368 60.0247L107.385 60.0359L107.402 60.0471L107.42 60.0583L107.437 60.0695L107.454 60.0807L107.471 60.0919L107.489 60.1031L107.506 60.1143L107.523 60.1255L107.54 60.1367L107.558 60.1479L107.575 60.1591L107.592 60.1703L107.609 60.1815L107.627 60.1927L107.644 60.2039L107.661 60.215L107.678 60.2262L107.696 60.2374L107.713 60.2486L107.73 60.2598L107.747 60.271L107.764 60.2822L107.782 60.2934L107.799 60.3046L107.816 60.3158L107.833 60.327L107.851 60.3382L107.868 60.3494L107.885 60.3606L107.902 60.3718L107.92 60.383L107.937 60.3942L107.954 60.4054L107.971 60.4166L107.989 60.4278L108.006 60.439L108.023 60.4502L108.04 60.4613L108.058 60.4725L108.075 60.4837L108.092 60.4949L108.109 60.5061L108.126 60.5173L108.144 60.5285L108.161 60.5397L108.178 60.5509L108.195 60.5621L108.213 60.5733L108.23 60.5845L108.247 60.5957L108.264 60.6069L108.282 60.6181L108.299 60.6293L108.316 60.6405L108.333 60.6517L108.351 60.6629L108.368 60.6741L108.385 60.6852L108.402 60.6964L108.42 60.7076L108.437 60.7188L108.454 60.73L108.471 60.7412L108.489 60.7524L108.506 60.7636L108.523 60.7748L108.54 60.786L108.557 60.7972L108.575 60.8084L108.592 60.8196L108.609 60.8308L108.626 60.842L108.644 60.8532L108.661 60.8644L108.678 60.8756L108.695 60.8868L108.713 60.898L108.73 60.9092L108.747 60.9203L108.764 60.9315L108.782 60.9427L108.799 60.9539L108.816 60.9651L108.833 60.9763L108.851 60.9875L108.868 60.9987L108.885 61.0099L108.902 61.0211L108.919 61.0323ZM103.091 64.8087C103.091 64.8086 103.093 64.8083 103.097 64.8085C103.093 64.809 103.091 64.8089 103.091 64.8087ZM94.9592 59.507C94.9593 59.507 94.9601 59.5073 94.9616 59.508C94.9599 59.5074 94.9592 59.5071 94.9592 59.507ZM91.3655 49.5122C91.3655 49.5121 91.3665 49.5125 91.3686 49.5135C91.3665 49.5128 91.3655 49.5122 91.3655 49.5122Z" stroke="black"/>
</g>
</g>
<defs>
<filter id="filter0_d_0_1" x="37.7961" y="33.6425" width="106.558" height="90.578" filterUnits="userSpaceOnUse" color-interpolation-filters="sRGB">
<feFlood flood-opacity="0" result="BackgroundImageFix"/>
<feColorMatrix in="SourceAlpha" type="matrix" values="0 0 0 0 0 0 0 0 0 0 0 0 0 0 0 0 0 0 127 0" result="hardAlpha"/>
<feOffset dy="4"/>
<feGaussianBlur stdDeviation="2"/>
<feComposite in2="hardAlpha" operator="out"/>
<feColorMatrix type="matrix" values="0 0 0 0 0 0 0 0 0 0 0 0 0 0 0 0 0 0 0.25 0"/>
<feBlend mode="normal" in2="BackgroundImageFix" result="effect1_dropShadow_0_1"/>
<feBlend mode="normal" in="SourceGraphic" in2="effect1_dropShadow_0_1" result="shape"/>
</filter>
</defs>
</svg>
